HIERARCHY
ROOT Hips
{
	OFFSET -3.958830 18.904000 13.208200
	CHANNELS 6 Xposition Yposition Zposition Zrotation Yrotation Xrotation 
	JOINT LHipJoint
	{
		OFFSET 0.000000 0.000000 0.000000
		CHANNELS 3 Zrotation Yrotation Xrotation
		JOINT LeftUpLeg
		{
			OFFSET 1.800000 -1.400000 0.085000
			CHANNELS 3 Zrotation Yrotation Xrotation
			JOINT LeftLeg
			{
				OFFSET 2.215000 -6.000000 0.000000
				CHANNELS 3 Zrotation Yrotation Xrotation
				JOINT LeftFoot
				{
					OFFSET 2.500000 -6.900000 0.000000
					CHANNELS 3 Zrotation Yrotation Xrotation
					JOINT LeftToeBase
					{
						OFFSET 0.200000 -0.500000 1.950000
						CHANNELS 3 Zrotation Yrotation Xrotation
						End Site
						{
							OFFSET 0.000000 0.000000 0.000000
						}
					}
				}
			}
		}
	}
	JOINT RHipJoint
	{
		OFFSET 0.000000 0.000000 0.000000
		CHANNELS 3 Zrotation Yrotation Xrotation
		JOINT RightUpLeg
		{
			OFFSET -1.800000 -1.400000 0.085000
			CHANNELS 3 Zrotation Yrotation Xrotation
			JOINT RightLeg
			{
				OFFSET -2.215000 -6.000000 0.000000
				CHANNELS 3 Zrotation Yrotation Xrotation
				JOINT RightFoot
				{
					OFFSET -2.500000 -6.900000 0.000000
					CHANNELS 3 Zrotation Yrotation Xrotation
					JOINT RightToeBase
					{
						OFFSET -0.200000 -0.500000 1.950000
						CHANNELS 3 Zrotation Yrotation Xrotation
						End Site
						{
							OFFSET 0.000000 0.000000 0.000000
						}
					}
				}
			}
		}
	}
	JOINT LowerBack
	{
		OFFSET 0.000000 0.000000 0.000000
		CHANNELS 3 Zrotation Yrotation Xrotation
		JOINT Spine
		{
			OFFSET -0.087000 1.940000 -0.288900
			CHANNELS 3 Zrotation Yrotation Xrotation
			JOINT Spine1
			{
				OFFSET 0.000000 1.950000 0.060000
				CHANNELS 3 Zrotation Yrotation Xrotation
				JOINT Neck
				{
					OFFSET 0.000000 0.000000 0.000000
					CHANNELS 3 Zrotation Yrotation Xrotation
					JOINT Neck1
					{
						OFFSET 0.000000 1.600000 0.340000
						CHANNELS 3 Zrotation Yrotation Xrotation
						JOINT Head
						{
							OFFSET 0.000000 1.667000 -0.240000
							CHANNELS 3 Zrotation Yrotation Xrotation
							End Site
							{
								OFFSET 0.000000 0.000000 0.000000
							}
						}
					}
				}
				JOINT LeftShoulder
				{
					OFFSET 0.000000 0.000000 0.000000
					CHANNELS 3 Zrotation Yrotation Xrotation
					JOINT LeftArm
					{
						OFFSET 2.700000 1.550000 -0.730000
						CHANNELS 3 Zrotation Yrotation Xrotation
						JOINT LeftForeArm
						{
							OFFSET 5.450000 0.000000 0.000000
							CHANNELS 3 Zrotation Yrotation Xrotation
							JOINT LeftHand
							{
								OFFSET 3.450000 0.000000 0.000000
								CHANNELS 3 Zrotation Yrotation Xrotation
								JOINT LeftHandIndex1
								{
									OFFSET 0.750000 0.000000 0.000000
									CHANNELS 3 Zrotation Yrotation Xrotation
									End Site
									{
										OFFSET 0.000000 0.000000 0.000000
									}
								}
							}
						}
					}
				}
				JOINT RightShoulder
				{
					OFFSET 0.000000 0.000000 0.000000
					CHANNELS 3 Zrotation Yrotation Xrotation
					JOINT RightArm
					{
						OFFSET -2.700000 1.550000 -0.730000
						CHANNELS 3 Zrotation Yrotation Xrotation
						JOINT RightForeArm
						{
							OFFSET -5.450000 0.000000 0.000000
							CHANNELS 3 Zrotation Yrotation Xrotation
							JOINT RightHand
							{
								OFFSET -3.450000 0.000000 0.000000
								CHANNELS 3 Zrotation Yrotation Xrotation
								JOINT RightHandIndex1
								{
									OFFSET -0.750000 0.000000 0.000000
									CHANNELS 3 Zrotation Yrotation Xrotation
									End Site
									{
										OFFSET 0.000000 0.000000 0.000000
									}
								}
							}
						}
					}
				}
			}
		}
	}
}
MOTION
Frames: 10
Frame Time: 0.016667
0.138280 16.657950 -0.717650 -3.408825 -2.241278 -1.791364 -15.022962 12.700774 3.477314 7.213953 -3.633294 -18.685080 -15.720661 13.685521 33.319380 0.575266 7.749785 1.868802 0.134020 0.054160 0.033430 18.343042 -10.746450 2.996039 -6.624024 4.134321 -16.624530 17.376894 -12.228148 32.719153 -0.670829 -6.336112 2.140688 0.058020 0.242000 0.142560 -3.871089 -1.030355 -8.102013 10.307261 0.206888 14.092663 -4.162106 2.271193 13.780560 3.045221 -3.499353 -16.141447 -7.714087 2.364830 34.139585 -1.477080 0.817930 -3.652860 -19.404593 -27.899629 9.588335 -45.125731 -10.161787 -5.918293 -19.175759 -28.537124 1.283048 -3.670665 3.162184 0.135930 0.149490 -0.048590 0.120680 13.992971 32.909190 13.632097 45.416409 8.431301 -9.154591 21.614152 31.723801 1.383666 2.217176 -1.500149 -0.072540 0.150850 0.037230 -0.015620 
0.139210 16.646890 -0.718280 -3.409217 -2.235109 -1.789509 -15.026754 12.675217 3.498952 7.374995 -3.690929 -18.855917 -15.972523 13.882460 33.565005 0.599115 7.840040 1.840624 0.131900 0.051270 0.031150 18.343127 -10.720452 3.001080 -6.792271 4.198609 -16.770833 17.619482 -12.396441 32.941551 -0.682994 -6.399720 2.119100 0.055490 0.244610 0.143430 -3.866821 -1.034884 -8.120471 10.315209 0.190369 14.171614 -4.177055 2.269583 13.624605 3.055010 -3.498597 -16.091510 -7.702020 2.340006 34.074885 -1.488880 0.798300 -3.535700 -19.464528 -27.669109 9.514346 -44.920490 -9.989656 -5.951772 -19.420626 -28.584915 1.352009 -3.672908 3.165033 0.133060 0.151110 -0.050110 0.122730 14.021688 32.684700 13.596083 45.211276 8.217480 -9.171099 21.779389 31.740044 1.430027 2.219862 -1.502287 -0.071820 0.149670 0.036480 -0.013690 
0.140530 16.629400 -0.719840 -3.447570 -2.254858 -1.884658 -15.034730 12.641038 3.537380 7.716965 -3.760060 -19.043799 -16.470367 14.252107 33.950851 0.642987 7.997781 1.785736 0.130390 0.049950 0.034740 18.339532 -10.668624 3.016310 -7.074241 4.317467 -16.905815 18.165034 -12.735376 33.306131 -0.713218 -6.517081 2.074870 0.050620 0.236670 0.143260 -3.851320 -1.066341 -8.166440 10.363480 0.138028 14.458580 -4.206163 2.262819 13.373209 3.119307 -3.508337 -16.090790 -7.744999 2.340695 34.169432 -1.538660 0.834860 -3.550760 -19.576141 -27.363315 9.440659 -44.497045 -9.596407 -6.094829 -19.805852 -28.776358 1.462884 -3.666485 3.167624 0.134720 0.144700 -0.043760 0.120100 13.991721 32.418225 13.587822 44.777601 7.810824 -9.283665 22.154527 31.929625 1.543754 2.227301 -1.501206 -0.067960 0.145240 0.033900 -0.013530 
0.143190 16.608150 -0.721630 -3.532655 -2.244048 -2.054848 -15.042254 12.603368 3.586351 8.195182 -3.839168 -19.250235 -17.070943 14.719916 34.455540 0.694365 8.198145 1.714039 0.129240 0.049300 0.037350 18.336530 -10.603097 3.035010 -7.421680 4.451912 -16.998203 18.859783 -13.164186 33.718537 -0.751888 -6.660949 2.023075 0.045140 0.225130 0.139710 -3.838091 -1.118356 -8.227736 10.509395 0.032420 14.876644 -4.227753 2.233514 13.096542 3.163177 -3.591942 -16.152539 -7.960003 2.400534 34.386241 -1.497110 0.843990 -3.644000 -19.646725 -27.081013 9.392189 -43.976093 -9.082932 -6.300225 -20.281744 -29.038799 1.589237 -3.654060 3.168602 0.141140 0.133740 -0.036200 0.115830 13.966502 32.211219 13.628787 44.189975 7.277988 -9.387273 22.333553 31.975595 1.623137 2.233385 -1.493434 -0.064640 0.141690 0.032540 -0.014820 
0.146110 16.584930 -0.723070 -3.600603 -2.193567 -2.282148 -15.053720 12.569900 3.642254 8.690127 -3.938155 -19.456873 -17.663971 15.224319 35.064559 0.756145 8.415568 1.636103 0.129370 0.050310 0.041450 18.328721 -10.532373 3.052492 -7.831744 4.564375 -17.039046 19.603253 -13.632903 34.128278 -0.795729 -6.813598 1.966597 0.037600 0.209330 0.138440 -3.812743 -1.189745 -8.297720 10.592599 -0.083194 15.379367 -4.226204 2.198876 12.794616 3.216574 -3.655471 -16.264187 -8.166005 2.457958 34.707303 -1.416030 0.843940 -3.731300 -19.727767 -26.824757 9.373354 -43.358495 -8.463378 -6.551304 -20.688038 -29.357855 1.712370 -3.636247 3.173370 0.147890 0.119580 -0.024420 0.111220 13.936258 32.026595 13.704378 43.514433 6.631875 -9.516846 22.485611 32.035382 1.704195 2.242201 -1.486147 -0.056780 0.133750 0.029090 -0.014810 
0.147990 16.560000 -0.723950 -3.598522 -2.198932 -2.502209 -15.069375 12.533562 3.697617 9.144516 -4.030460 -19.649699 -18.286543 15.746296 35.634727 0.812316 8.638797 1.559971 0.127410 0.044920 0.042810 18.317995 -10.454130 3.073177 -8.348356 4.703334 -17.147953 20.400323 -14.158779 34.618981 -0.841164 -6.991717 1.905951 0.029780 0.200260 0.136010 -3.776806 -1.267310 -8.367287 10.544619 -0.148254 15.869140 -4.159111 2.198819 12.497803 3.243117 -3.732170 -16.377960 -8.384618 2.559140 34.981828 -1.317370 0.861460 -3.738580 -19.781233 -26.552852 9.349737 -42.729133 -7.796665 -6.801090 -21.009458 -29.674759 1.814975 -3.622844 3.173838 0.157410 0.109880 -0.018660 0.108300 13.947459 31.846729 13.790875 42.796199 5.955459 -9.601688 22.486882 31.952584 1.748193 2.244716 -1.476117 -0.055520 0.130010 0.028900 -0.017610 
0.149460 16.535100 -0.724950 -3.580517 -2.228325 -2.751526 -15.081976 12.500675 3.750432 9.573461 -4.113335 -19.812254 -18.857022 16.253099 36.200818 0.866016 8.852988 1.487499 0.126300 0.040040 0.043850 18.309338 -10.379620 3.094983 -8.885787 4.837793 -17.236187 21.172923 -14.685850 35.112097 -0.888290 -7.168723 1.846042 0.022540 0.190560 0.132560 -3.747916 -1.344110 -8.436114 10.529817 -0.230846 16.404021 -4.179755 2.215304 12.174451 3.266745 -3.833062 -16.506738 -8.668857 2.708169 35.327511 -1.134550 0.866420 -3.779450 -19.834967 -26.272409 9.331562 -41.973058 -7.055479 -7.042969 -21.304021 -29.975477 1.920332 -3.606371 3.172905 0.169980 0.098020 -0.011630 0.106300 13.962819 31.673992 13.880853 42.131365 5.292074 -9.685300 22.357892 31.878521 1.774494 2.246451 -1.464092 -0.055380 0.127760 0.028450 -0.020750 
0.150340 16.509590 -0.725520 -3.596115 -2.312590 -3.025435 -15.094834 12.464742 3.804016 10.082427 -4.161958 -19.931235 -19.503619 16.808250 36.729892 0.924346 9.075701 1.412084 0.127410 0.038250 0.047490 18.301435 -10.304064 3.116491 -9.351405 4.983892 -17.286466 21.909352 -15.202845 35.614418 -0.936991 -7.343078 1.787000 0.016390 0.177800 0.129140 -3.719180 -1.415276 -8.504212 10.551008 -0.292058 16.952252 -4.171712 2.253638 11.877487 3.297971 -3.949399 -16.641232 -8.983189 2.819539 35.674156 -1.029150 0.862090 -3.837000 -19.813465 -25.973176 9.304682 -41.240282 -6.350878 -7.269315 -21.562400 -30.287872 2.025494 -3.588437 3.173349 0.181660 0.084850 -0.002980 0.104290 13.895606 31.508041 13.985519 41.447690 4.607455 -9.766859 22.205938 31.813325 1.795085 2.249079 -1.453915 -0.053460 0.123790 0.025670 -0.023710 
0.151060 16.483430 -0.725550 -3.628337 -2.363285 -3.297813 -15.106277 12.428552 3.854643 10.607576 -4.198508 -20.028737 -20.136892 17.343647 37.200032 0.984174 9.281306 1.342388 0.129680 0.040490 0.050190 18.295432 -10.228931 3.138456 -9.795552 5.117289 -17.321117 22.664537 -15.720793 36.059371 -0.986268 -7.512238 1.730444 0.010070 0.163920 0.126540 -3.695784 -1.484025 -8.567927 10.619382 -0.390382 17.492088 -4.207931 2.263351 11.563314 3.340907 -4.075240 -16.761719 -9.309914 2.924011 35.971432 -0.955080 0.861980 -3.907640 -19.745124 -25.622332 9.276032 -40.520181 -5.617462 -7.495884 -21.763597 -30.626189 2.129844 -3.570045 3.177510 0.189770 0.071750 0.006250 0.102490 13.754478 31.294975 14.069067 40.811076 3.956342 -9.838370 22.001469 31.795747 1.814462 2.252848 -1.446040 -0.047200 0.117470 0.021860 -0.024480 
0.151790 16.456750 -0.725190 -3.697668 -2.388661 -3.544508 -15.116316 12.385798 3.910417 11.186363 -4.237595 -20.176522 -20.797611 17.911633 37.694561 1.045660 9.499834 1.269148 0.133630 0.043350 0.054280 18.292605 -10.148890 3.160559 -10.199518 5.263143 -17.382318 23.409522 -16.239796 36.505623 -1.036584 -7.679143 1.673849 0.005180 0.150500 0.125910 -3.679703 -1.551462 -8.632008 10.767918 -0.523809 18.023831 -4.273179 2.256198 11.211488 3.378058 -4.243453 -16.857772 -9.715318 3.028898 36.209766 -0.889380 0.832210 -4.028870 -19.803594 -25.236074 9.214060 -39.697781 -4.880979 -7.654790 -21.916511 -30.835922 2.224118 -3.552773 3.181868 0.198110 0.058720 0.016360 0.101760 13.749217 31.064969 14.135917 40.041870 3.311535 -9.830241 21.670076 31.641805 1.815932 2.257059 -1.437524 -0.040910 0.111430 0.017410 -0.024910 
